<?xml version="1.0" encoding="UTF-8" standalone="no"?>
<svg
   viewBox="0 0 256 256"
   height="256"
   width="256"
   version="1.1"
   id="svg49"
   sodipodi:docname="logo.svg"
   inkscape:version="1.2.2 (b0a8486541, 2022-12-01)"
   xmlns:inkscape="http://www.inkscape.org/namespaces/inkscape"
   xmlns:sodipodi="http://sodipodi.sourceforge.net/DTD/sodipodi-0.dtd"
   xmlns="http://www.w3.org/2000/svg"
   xmlns:svg="http://www.w3.org/2000/svg">
  <defs
     id="defs53" />
  <sodipodi:namedview
     id="namedview51"
     pagecolor="#ffffff"
     bordercolor="#000000"
     borderopacity="0.25"
     inkscape:showpageshadow="2"
     inkscape:pageopacity="0.0"
     inkscape:pagecheckerboard="true"
     inkscape:deskcolor="#d1d1d1"
     showgrid="false"
     inkscape:zoom="1.89375"
     inkscape:cx="253.72937"
     inkscape:cy="198.28383"
     inkscape:window-width="1920"
     inkscape:window-height="996"
     inkscape:window-x="-8"
     inkscape:window-y="1072"
     inkscape:window-maximized="1"
     inkscape:current-layer="svg49" />
  <path
     d="M 52.409405,45.615 V 5.4 H 203.59041 v 40.215 h -9.795 V 15.195 H 62.204405 v 30.42 h -9.795 m 0,164.77 V 250.6 H 203.59041 v -40.215 h -9.795 v 30.42 H 62.204405 v -30.42 h -9.795"
     fill="#ffb86c"
     stroke="transparent"
     id="path40" />
  <path
     d="m 57.636171,204.14958 h -5.222067 v -17.17166 h 4.869224 q 2.352283,0 3.683675,1.17614 1.326687,1.17614 1.326687,3.26967 v 0 q 0,1.17614 -0.49398,2.04649 -0.493979,0.87034 -1.397255,1.3408 -0.907981,0.47046 -2.178214,0.44693 v 0 -0.35284 q 1.364324,-0.0235 2.366396,0.5175 0.997368,0.54103 1.552507,1.55251 0.550434,1.01148 0.550434,2.39933 v 0 q 0,1.45841 -0.611594,2.54046 -0.611593,1.08205 -1.740689,1.65601 -1.129095,0.57866 -2.705124,0.57866 z m -3.152058,-8.02128 v 6.11593 h 2.91683 q 1.481937,0 2.342873,-0.79037 0.85623,-0.78566 0.85623,-2.14998 v 0 q 0,-1.41137 -0.85623,-2.29583 -0.860936,-0.87975 -2.342873,-0.87975 v 0 z m 0,-7.24503 v 5.41025 h 2.775693 q 1.364323,0 2.15469,-0.72921 0.785663,-0.72921 0.785663,-1.97592 v 0 q 0,-1.24671 -0.776254,-1.97591 -0.776253,-0.72921 -2.140577,-0.72921 v 0 z m 16.889386,15.50154 v 0 q -2.234668,0 -3.575469,-1.33139 -1.340801,-1.32669 -1.340801,-3.6084 v 0 -8.23299 h 2.117054 v 8.23299 q 0,1.45841 0.752731,2.2676 0.75273,0.81389 2.046485,0.81389 v 0 q 1.317278,0 2.079418,-0.81389 0.766844,-0.80919 0.766844,-2.2676 v 0 -8.23299 h 2.117054 v 8.23299 q 0,2.28171 -1.364324,3.6084 -1.364323,1.33139 -3.598992,1.33139 z m 20.135537,-0.23523 H 80.453309 v -1.92887 h 4.586951 v -9.07981 h -3.99888 v -1.92887 h 6.115934 v 11.00868 h 4.351722 z m -5.645478,-15.26631 v 0 q -0.780957,0 -1.223186,-0.39989 -0.446934,-0.39989 -0.446934,-1.08205 v 0 q 0,-0.70568 0.446934,-1.11969 0.442229,-0.40929 1.223186,-0.40929 v 0 q 0.776254,0 1.218483,0.40929 0.451638,0.41401 0.451638,1.11969 v 0 q 0,0.68216 -0.451638,1.08205 -0.442229,0.39989 -1.218483,0.39989 z m 19.636852,15.26631 h -4.11649 q -1.1291,0 -1.97592,-0.44693 -0.846822,-0.44694 -1.317278,-1.27024 -0.470457,-0.82329 -0.470457,-1.92887 v 0 -11.59675 h -4.351722 v -1.92887 h 6.468776 v 13.52562 q 0,0.79978 0.446931,1.25612 0.44694,0.46105 1.19967,0.46105 v 0 h 4.11649 z m 7.48026,0.23523 v 0 q -1.92887,0 -3.11442,-1.29376 -1.19026,-1.29375 -1.19026,-3.5049 v 0 -3.78717 q 0,-2.23467 1.17614,-3.52843 1.17614,-1.29375 3.12854,-1.29375 v 0 q 1.59955,0 2.56399,0.87034 0.96443,0.87035 0.96443,2.32876 v 0 l -0.42341,-0.49398 h 0.47046 l -0.047,-2.94035 v -3.76365 h 2.11705 v 17.17166 h -2.11705 v -2.4699 h -0.42341 l 0.42341,-0.49398 q 0,1.48194 -0.96444,2.33817 -0.96443,0.86094 -2.56398,0.86094 z m 0.70568,-1.83478 v 0 q 1.31728,0 2.07001,-0.8233 0.75273,-0.8233 0.75273,-2.28171 v 0 -3.52843 q 0,-1.45841 -0.75273,-2.28171 -0.75273,-0.8233 -2.07001,-0.8233 v 0 q -1.3408,0 -2.11705,0.79978 -0.77625,0.79977 -0.77625,2.30523 v 0 3.52843 q 0,1.50546 0.77625,2.30523 0.77625,0.79978 2.11705,0.79978 z m 29.33296,1.59955 h -2.11705 v -15.26631 h -4.70457 v -1.92887 h 11.52619 v 1.92887 h -4.70457 z m 13.05046,0.18818 v 0 q -1.55251,0 -2.6816,-0.58807 -1.12909,-0.58807 -1.75009,-1.70775 -0.62571,-1.11499 -0.62571,-2.64397 v 0 -3.43433 q 0,-1.55251 0.62571,-2.65808 0.621,-1.10557 1.75009,-1.69364 1.12909,-0.58808 2.6816,-0.58808 v 0 q 1.55251,0 2.6816,0.58808 1.1291,0.58807 1.75482,1.69364 0.62099,1.10557 0.62099,2.63455 v 0 3.45786 q 0,1.52898 -0.62099,2.64397 -0.62571,1.11968 -1.75482,1.70775 -1.12909,0.58807 -2.6816,0.58807 z m 0,-1.88182 v 0 q 1.38785,0 2.1641,-0.77626 0.77626,-0.77625 0.77626,-2.28171 v 0 -3.43433 q 0,-1.50546 -0.77626,-2.28172 -0.77625,-0.77625 -2.1641,-0.77625 v 0 q -1.36432,0 -2.14999,0.77625 -0.79036,0.77626 -0.79036,2.28172 v 0 3.43433 q 0,1.50546 0.79036,2.28171 0.78567,0.77626 2.14999,0.77626 z m 14.11369,1.88182 v 0 q -1.5525,0 -2.6816,-0.58807 -1.12909,-0.58807 -1.7501,-1.70775 -0.6257,-1.11499 -0.6257,-2.64397 v 0 -3.43433 q 0,-1.55251 0.6257,-2.65808 0.62101,-1.10557 1.7501,-1.69364 1.1291,-0.58808 2.6816,-0.58808 v 0 q 1.55251,0 2.68162,0.58808 1.12908,0.58807 1.7548,1.69364 0.621,1.10557 0.621,2.63455 v 0 3.45786 q 0,1.52898 -0.621,2.64397 -0.62572,1.11968 -1.7548,1.70775 -1.1291,0.58807 -2.68162,0.58807 z m 0,-1.88182 v 0 q 1.38786,0 2.16411,-0.77626 0.77625,-0.77625 0.77625,-2.28171 v 0 -3.43433 q 0,-1.50546 -0.77625,-2.28172 -0.77625,-0.77625 -2.16411,-0.77625 v 0 q -1.36432,0 -2.14997,0.77625 -0.79037,0.77626 -0.79037,2.28172 v 0 3.43433 q 0,1.50546 0.79037,2.28171 0.78565,0.77626 2.14997,0.77626 z m 19.9944,1.69364 h -4.11649 q -1.1291,0 -1.97591,-0.44693 -0.84683,-0.44694 -1.31729,-1.27024 -0.47044,-0.82329 -0.47044,-1.92887 v 0 -11.59675 h -4.35172 v -1.92887 h 6.46877 v 13.52562 q 0,0.79978 0.44693,1.25612 0.44694,0.46105 1.19966,0.46105 v 0 h 4.11649 z m 8.82106,0.18818 h -0.98796 q -1.31727,0 -2.29582,-0.414 -0.97384,-0.4093 -1.5525,-1.16203 -0.57396,-0.75273 -0.69158,-1.78773 v 0 h 2.11706 q 0.14114,0.68216 0.76213,1.08205 0.62571,0.39989 1.66071,0.39989 v 0 h 0.98796 q 1.24671,0 1.85831,-0.50339 0.61159,-0.50809 0.61159,-1.35492 v 0 q 0,-0.8233 -0.55514,-1.30787 -0.55043,-0.47986 -1.63248,-0.64452 v 0 l -1.74069,-0.28227 q -1.90535,-0.32932 -2.83685,-1.19026 -0.9268,-0.85623 -0.9268,-2.50283 v 0 q 0,-1.74069 1.10557,-2.69571 1.10557,-0.95033 3.31673,-0.95033 v 0 h 0.89385 q 1.85831,0 2.98741,0.87035 1.12909,0.87034 1.36432,2.35228 v 0 h -2.11706 q -0.14113,-0.61159 -0.70568,-0.97855 -0.56455,-0.36225 -1.52899,-0.36225 v 0 h -0.89385 q -1.19968,0 -1.75482,0.44693 -0.55043,0.44694 -0.55043,1.34081 v 0 q 0,0.79977 0.47046,1.17614 0.47046,0.37636 1.48194,0.54102 v 0 l 1.74068,0.28228 q 2.09353,0.32931 3.04386,1.22318 0.95502,0.89387 0.95502,2.58751 v 0 q 0,1.78774 -1.14321,2.80863 -1.1385,1.02559 -3.44374,1.02559 z"
     opacity="1"
     fill="#ff79c6"
     class="slogan-text-1"
     data-fill-palette-color="secondary"
     id="text-1"
     style="stroke-width:0.470456" />
  <path
     d="m 83.232754,160.23081 v 0 q -14.971341,0 -22.897345,-8.30763 -7.926003,-8.27827 -7.926003,-22.51572 v 0 -77.792261 h 13.210006 v 77.792261 q 0,8.80667 4.344624,13.9439 4.315269,5.13722 13.268718,5.13722 v 0 q 8.806671,0 13.210007,-5.13722 4.403339,-5.13723 4.403339,-13.9439 v 0 -77.792261 h 13.21 v 77.792261 q 0,14.38423 -7.83793,22.60379 -7.867297,8.21956 -22.985416,8.21956 z m 120.357836,-1.46778 h -61.6467 V 51.615199 h 61.6467 v 12.035784 h -48.58347 v 33.171794 h 43.44624 v 11.889003 h -43.44624 v 38.01547 h 48.58347 z"
     opacity="1"
     fill="#bd93f9"
     class="wordmark-text-0"
     data-fill-palette-color="primary"
     id="text-0"
     style="stroke-width:2.93556" />
</svg>
